<svg id="visual" viewBox="0 0 900 600" width="900" height="600" xmlns="http://www.w3.org/2000/svg" xmlns:xlink="http://www.w3.org/1999/xlink" version="1.1"><rect x="0" y="0" width="900" height="600" fill="#001014"></rect><defs><linearGradient id="grad1_0" x1="33.3%" y1="0%" x2="100%" y2="100%"><stop offset="20%" stop-color="#001014" stop-opacity="1"></stop><stop offset="80%" stop-color="#001014" stop-opacity="1"></stop></linearGradient></defs><defs><linearGradient id="grad2_0" x1="0%" y1="0%" x2="66.7%" y2="100%"><stop offset="20%" stop-color="#001014" stop-opacity="1"></stop><stop offset="80%" stop-color="#001014" stop-opacity="1"></stop></linearGradient></defs><g transform="translate(900, 0)"><path d="M0 378.6C-41.2 326.1 -82.5 273.5 -143.5 248.5C-204.5 223.6 -285.4 226.1 -327.9 189.3C-370.3 152.5 -374.5 76.2 -378.6 0L0 0Z" fill="#2B7885"></path></g><g transform="translate(0, 600)"><path d="M0 -378.6C51.9 -344.5 103.8 -310.5 163.5 -283.2C223.2 -255.9 290.7 -235.4 327.9 -189.3C365 -143.2 371.8 -71.6 378.6 0L0 0Z" fill="#2B7885"></path></g></svg>