<svg id="visual" viewBox="0 0 900 600" width="900" height="600" xmlns="http://www.w3.org/2000/svg" xmlns:xlink="http://www.w3.org/1999/xlink" version="1.1"><g stroke-width="1" stroke-linejoin="bevel"><path d="M459.9 301L414.1 283L413.1 352Z" fill="#154650" stroke="#154650"></path><path d="M413.1 352L479.9 363L459.9 301Z" fill="#0c2127" stroke="#0c2127"></path><path d="M414.1 283L329.3 319L413.1 352Z" fill="#0a1c21" stroke="#0a1c21"></path><path d="M329.3 319L355.3 385L413.1 352Z" fill="#0f2d34" stroke="#0f2d34"></path><path d="M413.1 352L481.9 446L479.9 363Z" fill="#06161a" stroke="#06161a"></path><path d="M500.9 222L392.1 225L414.1 283Z" fill="#11333b" stroke="#11333b"></path><path d="M414.1 283L392.1 225L329.3 319Z" fill="#134049" stroke="#134049"></path><path d="M563.7 246L500.9 222L459.9 301Z" fill="#0a1c21" stroke="#0a1c21"></path><path d="M459.9 301L500.9 222L414.1 283Z" fill="#0c2127" stroke="#0c2127"></path><path d="M432.1 467L481.9 446L413.1 352Z" fill="#0e272d" stroke="#0e272d"></path><path d="M479.9 363L579.7 306L459.9 301Z" fill="#123942" stroke="#123942"></path><path d="M355.3 385L432.1 467L413.1 352Z" fill="#06161a" stroke="#06161a"></path><path d="M601.7 402L579.7 306L479.9 363Z" fill="#001014" stroke="#001014"></path><path d="M579.7 306L563.7 246L459.9 301Z" fill="#123942" stroke="#123942"></path><path d="M418.1 151L322.3 197L392.1 225Z" fill="#0a1c21" stroke="#0a1c21"></path><path d="M392.1 225L322.3 197L329.3 319Z" fill="#0a1c21" stroke="#0a1c21"></path><path d="M520.9 167L418.1 151L500.9 222Z" fill="#0c2127" stroke="#0c2127"></path><path d="M500.9 222L418.1 151L392.1 225Z" fill="#154650" stroke="#154650"></path><path d="M259.5 436L324.3 455L355.3 385Z" fill="#134049" stroke="#134049"></path><path d="M355.3 385L324.3 455L432.1 467Z" fill="#154650" stroke="#154650"></path><path d="M234.5 360L355.3 385L329.3 319Z" fill="#001014" stroke="#001014"></path><path d="M219.5 252L250.5 325L329.3 319Z" fill="#0c2127" stroke="#0c2127"></path><path d="M563.7 246L520.9 167L500.9 222Z" fill="#0e272d" stroke="#0e272d"></path><path d="M505.9 536L579.7 428L481.9 446Z" fill="#001014" stroke="#001014"></path><path d="M481.9 446L579.7 428L479.9 363Z" fill="#06161a" stroke="#06161a"></path><path d="M579.7 428L601.7 402L479.9 363Z" fill="#11333b" stroke="#11333b"></path><path d="M250.5 325L234.5 360L329.3 319Z" fill="#134049" stroke="#134049"></path><path d="M234.5 360L259.5 436L355.3 385Z" fill="#06161a" stroke="#06161a"></path><path d="M324.3 455L430.1 529L432.1 467Z" fill="#0e272d" stroke="#0e272d"></path><path d="M432.1 467L505.9 536L481.9 446Z" fill="#001014" stroke="#001014"></path><path d="M324.3 546L430.1 529L324.3 455Z" fill="#06161a" stroke="#06161a"></path><path d="M601.7 402L640.5 310L579.7 306Z" fill="#0c2127" stroke="#0c2127"></path><path d="M579.7 306L645.5 253L563.7 246Z" fill="#154650" stroke="#154650"></path><path d="M563.7 246L566.7 149L520.9 167Z" fill="#11333b" stroke="#11333b"></path><path d="M322.3 197L219.5 252L329.3 319Z" fill="#123942" stroke="#123942"></path><path d="M250.5 325L151.6 354L234.5 360Z" fill="#11333b" stroke="#11333b"></path><path d="M504.9 88L406.1 100L418.1 151Z" fill="#123942" stroke="#123942"></path><path d="M418.1 151L306.3 126L322.3 197Z" fill="#154650" stroke="#154650"></path><path d="M322.3 197L248.5 138L219.5 252Z" fill="#06161a" stroke="#06161a"></path><path d="M645.5 253L566.7 149L563.7 246Z" fill="#0a1c21" stroke="#0a1c21"></path><path d="M520.9 167L504.9 88L418.1 151Z" fill="#0f2d34" stroke="#0f2d34"></path><path d="M406.1 100L306.3 126L418.1 151Z" fill="#134049" stroke="#134049"></path><path d="M640.5 310L645.5 253L579.7 306Z" fill="#0f2d34" stroke="#0f2d34"></path><path d="M430.1 529L505.9 536L432.1 467Z" fill="#06161a" stroke="#06161a"></path><path d="M641.5 470L655.5 395L601.7 402Z" fill="#0f2d34" stroke="#0f2d34"></path><path d="M641.5 470L601.7 402L579.7 428Z" fill="#0a1c21" stroke="#0a1c21"></path><path d="M601.7 402L655.5 395L640.5 310Z" fill="#0e272d" stroke="#0e272d"></path><path d="M640.5 310L755.4 314L645.5 253Z" fill="#06161a" stroke="#06161a"></path><path d="M566.7 149L504.9 88L520.9 167Z" fill="#154650" stroke="#154650"></path><path d="M406.1 100L317.3 94L306.3 126Z" fill="#154650" stroke="#154650"></path><path d="M306.3 126L248.5 138L322.3 197Z" fill="#0e272d" stroke="#0e272d"></path><path d="M401.1 0L317.3 94L406.1 100Z" fill="#0c2127" stroke="#0c2127"></path><path d="M246.5 544L324.3 546L324.3 455Z" fill="#001014" stroke="#001014"></path><path d="M430.1 529L485.9 600L505.9 536Z" fill="#154650" stroke="#154650"></path><path d="M317.3 94L248.5 138L306.3 126Z" fill="#0a1c21" stroke="#0a1c21"></path><path d="M586.7 534L641.5 470L579.7 428Z" fill="#06161a" stroke="#06161a"></path><path d="M248.5 138L173.6 236L219.5 252Z" fill="#123942" stroke="#123942"></path><path d="M136.6 310L151.6 354L250.5 325Z" fill="#0f2d34" stroke="#0f2d34"></path><path d="M234.5 360L133.6 441L259.5 436Z" fill="#0c2127" stroke="#0c2127"></path><path d="M566.7 149L548.7 80L504.9 88Z" fill="#0c2127" stroke="#0c2127"></path><path d="M472.9 0L401.1 0L406.1 100Z" fill="#001014" stroke="#001014"></path><path d="M640.5 74L548.7 80L566.7 149Z" fill="#06161a" stroke="#06161a"></path><path d="M582.7 600L586.7 534L505.9 536Z" fill="#0c2127" stroke="#0c2127"></path><path d="M505.9 536L586.7 534L579.7 428Z" fill="#0c2127" stroke="#0c2127"></path><path d="M136.6 310L250.5 325L219.5 252Z" fill="#001014" stroke="#001014"></path><path d="M259.5 436L246.5 544L324.3 455Z" fill="#0f2d34" stroke="#0f2d34"></path><path d="M337.3 600L439.1 600L430.1 529Z" fill="#164d57" stroke="#164d57"></path><path d="M439.1 600L485.9 600L430.1 529Z" fill="#0f2d34" stroke="#0f2d34"></path><path d="M156.6 494L246.5 544L259.5 436Z" fill="#001014" stroke="#001014"></path><path d="M324.3 546L337.3 600L430.1 529Z" fill="#001014" stroke="#001014"></path><path d="M173.6 236L136.6 310L219.5 252Z" fill="#11333b" stroke="#11333b"></path><path d="M259.5 600L337.3 600L324.3 546Z" fill="#0e272d" stroke="#0e272d"></path><path d="M712.4 434L728.4 355L655.5 395Z" fill="#001014" stroke="#001014"></path><path d="M655.5 395L728.4 355L640.5 310Z" fill="#06161a" stroke="#06161a"></path><path d="M645.5 253L673.5 136L566.7 149Z" fill="#164d57" stroke="#164d57"></path><path d="M713.4 203L673.5 136L645.5 253Z" fill="#0f2d34" stroke="#0f2d34"></path><path d="M730.4 495L712.4 434L641.5 470Z" fill="#0f2d34" stroke="#0f2d34"></path><path d="M641.5 470L712.4 434L655.5 395Z" fill="#123942" stroke="#123942"></path><path d="M755.4 314L713.4 203L645.5 253Z" fill="#06161a" stroke="#06161a"></path><path d="M231.5 59L177.6 129L248.5 138Z" fill="#123942" stroke="#123942"></path><path d="M248.5 138L177.6 129L173.6 236Z" fill="#134049" stroke="#134049"></path><path d="M89.8 254L102.8 303L136.6 310Z" fill="#0f2d34" stroke="#0f2d34"></path><path d="M73.8 369L133.6 441L151.6 354Z" fill="#06161a" stroke="#06161a"></path><path d="M151.6 354L133.6 441L234.5 360Z" fill="#06161a" stroke="#06161a"></path><path d="M472.9 0L504.9 88L560.7 0Z" fill="#06161a" stroke="#06161a"></path><path d="M472.9 0L406.1 100L504.9 88Z" fill="#0a1c21" stroke="#0a1c21"></path><path d="M317.3 94L231.5 59L248.5 138Z" fill="#06161a" stroke="#06161a"></path><path d="M560.7 0L504.9 88L548.7 80Z" fill="#154650" stroke="#154650"></path><path d="M485.9 600L582.7 600L505.9 536Z" fill="#0e272d" stroke="#0e272d"></path><path d="M586.7 534L665.5 544L641.5 470Z" fill="#154650" stroke="#154650"></path><path d="M133.6 441L156.6 494L259.5 436Z" fill="#0e272d" stroke="#0e272d"></path><path d="M246.5 544L259.5 600L324.3 546Z" fill="#0f2d34" stroke="#0f2d34"></path><path d="M760.4 61L640.5 74L673.5 136Z" fill="#11333b" stroke="#11333b"></path><path d="M673.5 136L640.5 74L566.7 149Z" fill="#0c2127" stroke="#0c2127"></path><path d="M299.3 0L231.5 59L317.3 94Z" fill="#0a1c21" stroke="#0a1c21"></path><path d="M89.8 254L136.6 310L173.6 236Z" fill="#0a1c21" stroke="#0a1c21"></path><path d="M136.6 310L102.8 303L151.6 354Z" fill="#154650" stroke="#154650"></path><path d="M155.6 600L259.5 600L246.5 544Z" fill="#123942" stroke="#123942"></path><path d="M789.2 398L755.4 314L728.4 355Z" fill="#0f2d34" stroke="#0f2d34"></path><path d="M728.4 355L755.4 314L640.5 310Z" fill="#0f2d34" stroke="#0f2d34"></path><path d="M657.5 600L665.5 544L586.7 534Z" fill="#0a1c21" stroke="#0a1c21"></path><path d="M401.1 0L299.3 0L317.3 94Z" fill="#123942" stroke="#123942"></path><path d="M50.8 175L89.8 254L173.6 236Z" fill="#123942" stroke="#123942"></path><path d="M102.8 303L73.8 369L151.6 354Z" fill="#154650" stroke="#154650"></path><path d="M640.5 74L560.7 0L548.7 80Z" fill="#11333b" stroke="#11333b"></path><path d="M665.5 544L730.4 495L641.5 470Z" fill="#0e272d" stroke="#0e272d"></path><path d="M712.4 434L789.2 398L728.4 355Z" fill="#0e272d" stroke="#0e272d"></path><path d="M231.5 59L144.6 69L177.6 129Z" fill="#164d57" stroke="#164d57"></path><path d="M177.6 129L50.8 175L173.6 236Z" fill="#0a1c21" stroke="#0a1c21"></path><path d="M299.3 0L266.5 0L231.5 59Z" fill="#134049" stroke="#134049"></path><path d="M0 274L73.8 369L102.8 303Z" fill="#0f2d34" stroke="#0f2d34"></path><path d="M79.8 600L155.6 600L156.6 494Z" fill="#001014" stroke="#001014"></path><path d="M582.7 600L657.5 600L586.7 534Z" fill="#06161a" stroke="#06161a"></path><path d="M665.5 544L763.4 600L730.4 495Z" fill="#0c2127" stroke="#0c2127"></path><path d="M730.4 495L789.2 398L712.4 434Z" fill="#123942" stroke="#123942"></path><path d="M788.2 167L753.4 137L713.4 203Z" fill="#164d57" stroke="#164d57"></path><path d="M713.4 203L753.4 137L673.5 136Z" fill="#0e272d" stroke="#0e272d"></path><path d="M640.5 74L634.5 0L560.7 0Z" fill="#0e272d" stroke="#0e272d"></path><path d="M788.2 167L713.4 203L755.4 314Z" fill="#0e272d" stroke="#0e272d"></path><path d="M156.6 0L144.6 69L231.5 59Z" fill="#154650" stroke="#154650"></path><path d="M757.4 0L634.5 0L640.5 74Z" fill="#123942" stroke="#123942"></path><path d="M789.2 398L816.2 323L755.4 314Z" fill="#0f2d34" stroke="#0f2d34"></path><path d="M846.2 208L788.2 167L755.4 314Z" fill="#164d57" stroke="#164d57"></path><path d="M753.4 137L760.4 61L673.5 136Z" fill="#0f2d34" stroke="#0f2d34"></path><path d="M62.8 503L156.6 494L133.6 441Z" fill="#06161a" stroke="#06161a"></path><path d="M156.6 494L155.6 600L246.5 544Z" fill="#123942" stroke="#123942"></path><path d="M80.8 0L106.8 89L144.6 69Z" fill="#164d57" stroke="#164d57"></path><path d="M144.6 69L106.8 89L177.6 129Z" fill="#11333b" stroke="#11333b"></path><path d="M0 374L50.8 456L73.8 369Z" fill="#0f2d34" stroke="#0f2d34"></path><path d="M0 274L102.8 303L89.8 254Z" fill="#134049" stroke="#134049"></path><path d="M73.8 369L50.8 456L133.6 441Z" fill="#164d57" stroke="#164d57"></path><path d="M106.8 89L50.8 175L177.6 129Z" fill="#0f2d34" stroke="#0f2d34"></path><path d="M50.8 456L62.8 503L133.6 441Z" fill="#0c2127" stroke="#0c2127"></path><path d="M266.5 0L156.6 0L231.5 59Z" fill="#06161a" stroke="#06161a"></path><path d="M0 137L0 239L50.8 175Z" fill="#164d57" stroke="#164d57"></path><path d="M843.2 56L760.4 61L753.4 137Z" fill="#154650" stroke="#154650"></path><path d="M0 239L0 274L89.8 254Z" fill="#164d57" stroke="#164d57"></path><path d="M50.8 456L0 479L62.8 503Z" fill="#0c2127" stroke="#0c2127"></path><path d="M844.2 529L841.2 431L730.4 495Z" fill="#001014" stroke="#001014"></path><path d="M730.4 495L841.2 431L789.2 398Z" fill="#0f2d34" stroke="#0f2d34"></path><path d="M789.2 398L841.2 431L816.2 323Z" fill="#0e272d" stroke="#0e272d"></path><path d="M816.2 323L846.2 208L755.4 314Z" fill="#123942" stroke="#123942"></path><path d="M0 274L0 374L73.8 369Z" fill="#06161a" stroke="#06161a"></path><path d="M900 330L846.2 208L816.2 323Z" fill="#0f2d34" stroke="#0f2d34"></path><path d="M788.2 167L843.2 56L753.4 137Z" fill="#123942" stroke="#123942"></path><path d="M50.8 175L0 239L89.8 254Z" fill="#001014" stroke="#001014"></path><path d="M0 137L50.8 175L106.8 89Z" fill="#0a1c21" stroke="#0a1c21"></path><path d="M657.5 600L763.4 600L665.5 544Z" fill="#0a1c21" stroke="#0a1c21"></path><path d="M62.8 503L79.8 600L156.6 494Z" fill="#06161a" stroke="#06161a"></path><path d="M0 600L79.8 600L62.8 503Z" fill="#001014" stroke="#001014"></path><path d="M0 374L0 479L50.8 456Z" fill="#0a1c21" stroke="#0a1c21"></path><path d="M841.2 0L757.4 0L760.4 61Z" fill="#0a1c21" stroke="#0a1c21"></path><path d="M760.4 61L757.4 0L640.5 74Z" fill="#134049" stroke="#134049"></path><path d="M0 479L0 494L62.8 503Z" fill="#123942" stroke="#123942"></path><path d="M0 71L0 137L106.8 89Z" fill="#0e272d" stroke="#0e272d"></path><path d="M763.4 600L844.2 529L730.4 495Z" fill="#11333b" stroke="#11333b"></path><path d="M900 398L900 330L816.2 323Z" fill="#0e272d" stroke="#0e272d"></path><path d="M156.6 0L80.8 0L144.6 69Z" fill="#001014" stroke="#001014"></path><path d="M900 398L816.2 323L841.2 431Z" fill="#154650" stroke="#154650"></path><path d="M900 165L843.2 56L788.2 167Z" fill="#164d57" stroke="#164d57"></path><path d="M900 467L900 398L841.2 431Z" fill="#0f2d34" stroke="#0f2d34"></path><path d="M763.4 600L822.2 600L844.2 529Z" fill="#0f2d34" stroke="#0f2d34"></path><path d="M844.2 529L900 467L841.2 431Z" fill="#0a1c21" stroke="#0a1c21"></path><path d="M900 330L900 199L846.2 208Z" fill="#154650" stroke="#154650"></path><path d="M900 165L788.2 167L846.2 208Z" fill="#11333b" stroke="#11333b"></path><path d="M80.8 0L0 71L106.8 89Z" fill="#154650" stroke="#154650"></path><path d="M900 503L900 467L844.2 529Z" fill="#164d57" stroke="#164d57"></path><path d="M900 199L900 165L846.2 208Z" fill="#123942" stroke="#123942"></path><path d="M900 600L900 503L844.2 529Z" fill="#123942" stroke="#123942"></path><path d="M0 494L0 600L62.8 503Z" fill="#11333b" stroke="#11333b"></path><path d="M900 49L841.2 0L843.2 56Z" fill="#134049" stroke="#134049"></path><path d="M843.2 56L841.2 0L760.4 61Z" fill="#123942" stroke="#123942"></path><path d="M80.8 0L0 0L0 71Z" fill="#0e272d" stroke="#0e272d"></path><path d="M900 165L900 49L843.2 56Z" fill="#0a1c21" stroke="#0a1c21"></path><path d="M822.2 600L900 600L844.2 529Z" fill="#11333b" stroke="#11333b"></path><path d="M900 49L900 0L841.2 0Z" fill="#134049" stroke="#134049"></path></g></svg>